<?xml version="1.0" standalone="no"?>
<!DOCTYPE svg PUBLIC "-//W3C//DTD SVG 20010904//EN"
 "http://www.w3.org/TR/2001/REC-SVG-20010904/DTD/svg10.dtd">
<svg version="1.0" xmlns="http://www.w3.org/2000/svg"
 width="52.000000pt" height="50.000000pt" viewBox="0 0 52.000000 50.000000"
 preserveAspectRatio="xMidYMid meet">
<metadata>
Created by potrace 1.10, written by Peter Selinger 2001-2011
</metadata>
<g transform="translate(0.000000,50.000000) scale(0.100000,-0.100000)"
fill="#000000" stroke="none">
<path d="M183 455 c-16 -7 -46 -27 -67 -45 -123 -109 -92 -298 60 -370 100
-47 217 -9 280 91 19 31 24 52 24 108 0 38 -4 81 -9 94 -14 35 -69 95 -104
114 -38 19 -146 24 -184 8z m199 -40 c62 -44 90 -105 86 -182 -5 -77 -41 -135
-108 -171 -64 -34 -152 -28 -212 13 -62 44 -90 105 -86 182 5 77 41 135 108
171 64 34 152 28 212 -13z"/>
<path d="M203 419 c-73 -22 -134 -125 -119 -200 16 -82 60 -129 139 -151 153
-40 281 135 199 274 -39 66 -140 102 -219 77z m162 -44 c47 -35 69 -87 62
-147 -8 -61 -38 -105 -91 -129 -52 -23 -90 -23 -141 0 -37 17 -88 61 -71 61 4
0 0 7 -8 16 -19 18 -21 94 -4 127 6 12 14 29 18 36 30 66 168 87 235 36z"/>
<path d="M176 302 c-14 -17 -14 -20 1 -41 13 -19 14 -28 5 -42 -24 -38 -4 -91
25 -67 10 8 18 6 33 -7 24 -22 97 -22 118 -1 14 14 14 17 -3 36 -10 11 -23 20
-29 19 -6 -1 -21 -1 -34 0 -19 1 -22 5 -17 22 5 15 -1 29 -22 51 -42 44 -58
50 -77 30z m52 -99 c-17 -18 -34 -31 -37 -28 -2 3 6 16 19 30 l24 25 -27 28
c-38 40 -20 49 20 10 l33 -32 -32 -33z m117 -43 c-3 -5 -24 -10 -45 -10 -21 0
-42 5 -45 10 -4 6 13 10 45 10 32 0 49 -4 45 -10z"/>
</g>
</svg>
